<?xml version="1.0" encoding="UTF-8" standalone="no"?><!DOCTYPE svg PUBLIC "-//W3C//DTD SVG 1.1//EN" "http://www.w3.org/Graphics/SVG/1.1/DTD/svg11.dtd"><svg width="100%" height="100%" viewBox="0 0 1920 1080" version="1.1" xmlns="http://www.w3.org/2000/svg" xmlns:xlink="http://www.w3.org/1999/xlink" xml:space="preserve" xmlns:serif="http://www.serif.com/" style="fill-rule:evenodd;clip-rule:evenodd;stroke-linejoin:round;stroke-miterlimit:2;"><rect id="Artboard1" x="0" y="0" width="1920" height="1080" style="fill:none;"/><g id="Artboard11" serif:id="Artboard1"><g><path d="M694.068,602.007c-6.352,5.59 -13.467,8.829 -21.343,9.719c-7.877,0.889 -15.245,-0.509 -22.105,-4.193c-6.86,-3.684 -12.514,-9.655 -16.96,-17.912c-4.446,-8.258 -6.543,-18.612 -6.288,-31.062c0.508,-12.958 2.667,-27.186 6.479,-42.685c3.811,-15.499 8.257,-31.189 13.339,-47.069c5.081,-15.88 10.163,-31.569 15.245,-47.068c5.081,-15.499 9.147,-29.854 12.195,-43.067c3.812,-15.499 4.955,-26.36 3.431,-32.585c-1.525,-6.225 -4.828,-8.576 -9.91,-7.051c-5.081,1.524 -11.37,6.352 -18.865,14.482c-7.495,8.131 -15.181,18.802 -23.058,32.015c-12.958,21.342 -26.742,47.703 -41.351,79.082c-14.61,31.379 -29.156,69.555 -43.639,114.527c-1.016,3.049 -4.129,4.51 -9.337,4.383c-5.209,-0.127 -10.481,-1.398 -15.817,-3.811c-5.335,-2.414 -9.655,-5.781 -12.958,-10.1c-3.303,-4.32 -3.557,-9.274 -0.762,-14.864c1.524,-3.303 4.129,-9.274 7.813,-17.913c3.684,-8.638 7.876,-18.929 12.577,-30.87c4.7,-11.942 9.591,-25.027 14.673,-39.256c5.082,-14.228 9.846,-28.52 14.292,-42.876c4.446,-14.355 8.258,-28.266 11.434,-41.733c3.176,-13.466 5.272,-25.344 6.288,-35.634c1.017,-10.291 0.572,-18.485 -1.334,-24.583c-1.905,-6.098 -5.78,-9.147 -11.624,-9.147c-6.098,0.255 -12.704,3.304 -19.818,9.147c-7.114,5.844 -14.102,13.53 -20.962,23.058c-6.86,9.528 -13.339,20.263 -19.437,32.205c-6.098,11.942 -11.243,24.074 -15.435,36.397c-4.193,12.323 -7.115,24.265 -8.766,35.825c-1.652,11.561 -1.461,21.534 0.572,29.918c0.762,3.303 2.223,6.035 4.382,8.194c2.16,2.16 4.637,3.748 7.432,4.764c2.795,1.017 5.844,1.271 9.147,0.763c3.303,-0.509 6.606,-1.779 9.909,-3.812c-1.016,3.812 -3.747,7.051 -8.194,9.719c-4.446,2.668 -9.528,4.319 -15.245,4.954c-5.716,0.636 -11.56,0.255 -17.531,-1.143c-5.971,-1.397 -11.243,-4.319 -15.817,-8.766c-4.573,-4.446 -7.94,-10.48 -10.099,-18.103c-2.16,-7.622 -2.097,-17.277 0.19,-28.965c2.287,-11.18 5.526,-22.804 9.719,-34.873c4.192,-12.068 9.21,-23.82 15.054,-35.253c5.844,-11.434 12.45,-22.232 19.818,-32.395c7.369,-10.164 15.245,-19.12 23.63,-26.87c8.384,-7.749 17.214,-13.847 26.488,-18.293c9.274,-4.447 18.865,-6.67 28.774,-6.67c10.926,0 19.247,2.731 24.964,8.194c5.717,5.463 9.655,12.323 11.814,20.581c2.16,8.257 2.795,17.468 1.906,27.631c-0.889,10.163 -2.287,19.945 -4.192,29.346c-1.906,9.401 -4.066,17.913 -6.479,25.535c-2.414,7.623 -4.256,13.085 -5.527,16.389c2.541,-5.336 6.035,-12.577 10.481,-21.724c4.447,-9.147 9.592,-18.802 15.436,-28.966c5.843,-10.163 12.386,-20.135 19.627,-29.918c7.242,-9.782 14.928,-18.166 23.058,-25.153c8.131,-6.988 16.579,-11.752 25.345,-14.292c8.765,-2.541 17.722,-1.779 26.869,2.286c4.573,2.033 8.321,5.717 11.243,11.053c2.922,5.335 4.7,12.45 5.335,21.342c0.636,8.893 -0.127,19.819 -2.286,32.777c-2.16,12.958 -5.908,28.076 -11.243,45.353c-4.574,14.737 -9.274,29.791 -14.102,45.163c-4.827,15.372 -9.083,30.299 -12.767,44.782c-3.685,14.482 -6.606,28.012 -8.766,40.589c-2.16,12.577 -2.922,23.439 -2.287,32.586c0.635,9.147 2.922,16.07 6.86,20.771c3.939,4.7 10.1,6.415 18.485,5.145Z" style="fill-rule:nonzero;"/><path d="M827.079,498.723c2.032,-0.254 3.493,0.445 4.383,2.097c0.889,1.651 1.334,3.557 1.334,5.716c-0,2.16 -0.445,4.129 -1.334,5.908c-0.89,1.778 -1.969,2.668 -3.24,2.668c-5.844,0.762 -11.306,1.016 -16.388,0.762c-5.082,-0.254 -11.053,-1.525 -17.913,-3.811c-1.27,2.54 -2.922,6.034 -4.954,10.48c-2.033,4.447 -4.51,9.02 -7.432,13.721c-2.922,4.7 -6.352,9.274 -10.29,13.72c-3.939,4.447 -8.322,7.94 -13.149,10.481c-4.065,2.287 -9.21,2.985 -15.435,2.096c-6.225,-0.889 -12.45,-2.731 -18.675,-5.526c-6.225,-2.795 -11.752,-6.352 -16.579,-10.672c-4.828,-4.319 -7.877,-9.019 -9.147,-14.101c-2.033,-6.86 -2.414,-14.356 -1.143,-22.486c1.27,-8.131 3.303,-16.071 6.098,-23.82c2.794,-7.75 6.161,-14.864 10.099,-21.343c3.938,-6.479 7.686,-11.37 11.243,-14.673c1.271,-1.27 2.668,-2.414 4.193,-3.43c1.524,-1.016 2.922,-2.16 4.192,-3.43c-1.016,-5.336 -1.652,-10.735 -1.906,-16.198c-0.254,-5.463 1.017,-10.735 3.812,-15.816c2.286,-4.066 7.05,-6.67 14.292,-7.813c7.241,-1.144 14.863,-0.572 22.867,1.715c8.003,2.286 15.308,6.479 21.914,12.577c6.606,6.098 10.545,14.228 11.815,24.391c1.27,9.401 1.207,18.421 -0.191,27.06c-1.397,8.639 -3.112,17.532 -5.145,26.678c2.287,1.525 6.035,2.668 11.243,3.43c5.209,0.763 10.354,0.636 15.436,-0.381Zm-96.805,43.829c9.909,-5.844 17.214,-12.704 21.915,-20.58c4.7,-7.877 8.829,-16.261 12.386,-25.154c-8.893,-6.098 -15.753,-13.848 -20.581,-23.249c-1.27,1.271 -2.921,4.701 -4.954,10.291c-2.033,5.589 -4.002,12.005 -5.907,19.246c-1.906,7.242 -3.24,14.483 -4.002,21.724c-0.762,7.241 -0.381,13.149 1.143,17.722Zm40.018,-67.458c1.524,-3.557 2.541,-7.813 3.049,-12.768c0.508,-4.954 0.571,-9.909 0.19,-14.863c-0.381,-4.955 -1.016,-9.401 -1.905,-13.34c-0.89,-3.938 -1.842,-6.796 -2.859,-8.575c-4.065,5.082 -5.907,12.069 -5.526,20.962c0.381,8.893 2.731,18.421 7.051,28.584Z" style="fill-rule:nonzero;"/><path d="M935.317,347.037c10.671,2.033 18.929,3.939 24.773,5.717c6.352,2.287 10.798,5.082 13.339,8.385c1.525,2.287 3.176,5.463 4.955,9.528c0.508,2.032 1.016,4.065 1.524,6.098c0.508,2.032 0.889,3.938 1.144,5.717c-0,3.811 -1.144,5.97 -3.431,6.479c-3.811,-5.082 -11.433,-9.147 -22.867,-12.196c-17.277,-3.811 -30.362,-5.463 -39.255,-4.955l-12.196,18.294c-12.45,21.343 -23.121,43.194 -32.014,65.553c-8.893,23.121 -15.88,45.48 -20.962,67.077c-4.573,21.597 -5.971,39.001 -4.192,52.214c1.778,13.974 7.622,21.469 17.531,22.486c-3.811,3.303 -9.401,4.446 -16.769,3.43c-6.606,-0.763 -13.466,-4.701 -20.58,-11.815c-7.115,-6.606 -11.561,-16.515 -13.34,-29.727c-1.016,-9.91 -0.317,-21.534 2.096,-34.873c2.414,-13.339 6.416,-28.521 12.006,-45.544c5.59,-17.023 11.878,-33.666 18.865,-49.927c6.987,-16.261 14.546,-32.268 22.677,-48.021c0.508,-1.27 1.143,-2.477 1.906,-3.621c0.762,-1.143 1.397,-2.35 1.905,-3.62c-1.27,-0 -2.858,0.127 -4.764,0.381c-1.905,0.254 -4.002,0.635 -6.288,1.143c-2.287,0.508 -4.447,1.017 -6.479,1.525c-2.033,0.508 -4.066,1.143 -6.098,1.905c-2.033,0.509 -3.685,1.207 -4.955,2.097c-1.27,0.889 -2.16,1.588 -2.668,2.096c-1.524,2.54 -2.922,3.303 -4.192,2.286c-1.779,-1.27 -3.303,-2.922 -4.574,-4.954c-0.508,-1.271 -1.143,-2.477 -1.905,-3.621c-0.762,-1.143 -1.398,-2.35 -1.906,-3.62c-0.508,-1.271 -0.889,-2.414 -1.143,-3.431c-0.254,-1.016 -0.508,-1.778 -0.762,-2.286c-1.017,-2.795 -0.763,-5.336 0.762,-7.623c0.508,-1.27 1.27,-2.286 2.287,-3.049c1.016,-0.762 2.159,-1.524 3.43,-2.286c7.876,-3.049 16.515,-5.336 25.916,-6.861c4.573,-0.508 8.893,-1.016 12.958,-1.524c4.065,-0.508 7.876,-1.016 11.434,-1.524l2.667,-0c1.017,-0 2.16,-0.128 3.431,-0.382c8.384,-11.941 16.769,-22.486 25.154,-31.633c2.54,-2.54 6.224,-3.176 11.052,-1.905c4.065,0.762 8.385,3.176 12.958,7.241c4.319,4.065 6.86,7.622 7.623,10.671c0.762,3.558 0.127,5.971 -1.906,7.242l-9.147,11.433Z" style="fill-rule:nonzero;"/><path d="M1006.59,448.034c1.016,-1.016 2.35,-1.397 4.001,-1.143c1.652,0.254 3.24,0.889 4.764,1.906c1.525,1.016 2.668,2.35 3.43,4.001c0.763,1.652 0.636,3.367 -0.381,5.145c-3.303,9.91 -7.94,19.755 -13.911,29.537c-5.97,9.782 -12.767,18.993 -20.39,27.632c-7.622,8.638 -15.625,16.515 -24.01,23.629c-8.385,7.114 -16.642,12.958 -24.773,17.532c-3.811,2.032 -7.876,2.794 -12.196,2.286c-4.319,-0.508 -8.639,-1.715 -12.958,-3.62c-4.319,-1.906 -8.258,-4.129 -11.815,-6.67c-3.557,-2.541 -6.479,-4.955 -8.765,-7.241c-4.828,-5.082 -7.496,-11.878 -8.004,-20.39c-0.508,-8.512 0.445,-17.722 2.858,-27.631c2.414,-9.91 6.035,-20.2 10.862,-30.871c4.828,-10.672 10.227,-20.708 16.198,-30.109c5.971,-9.401 12.259,-17.658 18.865,-24.773c6.607,-7.114 12.832,-12.322 18.675,-15.626c3.557,-1.778 6.861,-2.731 9.91,-2.858c3.048,-0.127 6.224,0.381 9.528,1.525c3.303,1.143 6.669,2.794 10.099,4.954c3.43,2.16 7.305,4.51 11.624,7.051c6.098,3.811 8.893,8.639 8.385,14.482c0,2.795 -1.08,7.75 -3.239,14.864c-2.16,7.114 -5.209,14.546 -9.147,22.296c-3.939,7.749 -8.766,14.99 -14.483,21.724c-5.717,6.733 -12.132,11.243 -19.247,13.529c-5.081,1.271 -9.528,1.652 -13.339,1.144c-3.811,-0.508 -8.003,-1.779 -12.577,-3.811c-1.27,2.54 -2.668,6.288 -4.192,11.243c-1.525,4.954 -2.668,9.972 -3.43,15.054c-0.762,5.081 -1.016,9.591 -0.762,13.53c0.254,3.938 1.778,6.161 4.573,6.669c4.065,0.762 9.846,-1.397 17.341,-6.479c7.495,-5.081 15.308,-11.751 23.439,-20.009c8.131,-8.257 16.134,-17.595 24.011,-28.012c7.876,-10.417 14.228,-20.581 19.056,-30.49Zm-38.112,-28.203c-2.541,1.779 -5.781,5.146 -9.719,10.1c-3.938,4.955 -7.75,10.227 -11.434,15.817c-3.684,5.589 -6.86,10.798 -9.528,15.626c-2.668,4.827 -4.001,7.876 -4.001,9.146c4.573,0.763 8.829,-0.635 12.767,-4.192c3.938,-3.557 7.495,-8.067 10.671,-13.53c3.176,-5.462 5.717,-11.243 7.623,-17.341c1.905,-6.098 3.112,-11.306 3.621,-15.626Z" style="fill-rule:nonzero;"/><path d="M1111.01,455.657c13.212,-7.369 24.137,-11.751 32.776,-13.149c8.639,-1.397 17.023,0.445 25.154,5.526c-4.319,1.271 -10.1,3.812 -17.341,7.623c-7.241,3.811 -14.546,8.13 -21.914,12.958c-7.369,4.827 -13.975,9.528 -19.819,14.101c-5.844,4.574 -9.401,8.131 -10.671,10.672c-1.525,3.049 -4.002,7.241 -7.432,12.577c-3.43,5.335 -7.559,10.925 -12.386,16.769c-4.828,5.844 -9.973,11.688 -15.436,17.532c-5.462,5.843 -10.989,10.798 -16.579,14.863c-5.081,3.557 -10.036,5.908 -14.863,7.051c-4.828,1.143 -9.401,0.191 -13.721,-2.858c-4.827,-3.558 -7.177,-7.623 -7.05,-12.196c0.127,-4.574 1.651,-9.401 4.573,-14.483c2.922,-5.082 6.987,-10.163 12.196,-15.245c5.209,-5.081 10.417,-10.036 15.626,-14.863c5.209,-4.828 10.163,-9.211 14.864,-13.149c4.7,-3.938 8.067,-7.178 10.099,-9.719c1.779,-2.286 3.494,-5.399 5.146,-9.337c1.651,-3.938 2.921,-7.94 3.811,-12.005c0.889,-4.066 1.334,-7.813 1.334,-11.243c-0,-3.431 -0.763,-5.654 -2.287,-6.67c-7.623,1.778 -15.499,7.368 -23.63,16.769c-8.13,9.401 -16.007,20.771 -23.629,34.111c-7.622,13.339 -14.927,27.821 -21.914,43.447c-6.988,15.626 -13.276,30.553 -18.866,44.782c-5.59,14.228 -10.227,26.932 -13.911,38.112c-3.684,11.18 -6.161,19.056 -7.432,23.629c-0.762,2.795 -3.049,4.32 -6.86,4.574c-3.811,0.254 -7.813,-0.381 -12.005,-1.906c-4.193,-1.524 -7.75,-3.747 -10.672,-6.669c-2.921,-2.922 -3.747,-6.162 -2.477,-9.719c2.033,-5.59 5.336,-14.292 9.909,-26.107c4.574,-11.814 9.782,-25.09 15.626,-39.827c5.844,-14.736 12.069,-30.299 18.675,-46.687c6.606,-16.388 12.958,-32.141 19.056,-47.259c6.098,-15.118 11.688,-28.838 16.769,-41.161c5.082,-12.323 9.02,-21.787 11.815,-28.393c1.017,-3.049 3.367,-4.637 7.051,-4.764c3.684,-0.128 7.368,0.508 11.052,1.905c3.685,1.398 6.797,3.24 9.338,5.526c2.541,2.287 3.303,4.447 2.287,6.479c-1.271,2.541 -2.541,5.336 -3.812,8.385c-1.27,3.049 -2.921,7.368 -4.954,12.958c2.541,-2.032 5.018,-3.875 7.432,-5.526c2.413,-1.652 4.827,-2.922 7.241,-3.811c2.414,-0.89 5.018,-1.398 7.813,-1.525c2.795,-0.127 5.971,0.445 9.528,1.715c6.098,2.033 11.18,3.748 15.245,5.145c4.065,1.398 7.241,3.24 9.528,5.527c2.287,2.286 3.875,5.335 4.764,9.147c0.889,3.811 1.207,9.273 0.953,16.388Z" style="fill-rule:nonzero;"/><path d="M1290.52,440.412c0.763,-1.016 2.224,-1.461 4.383,-1.334c2.16,0.127 4.193,0.699 6.098,1.715c1.906,1.016 3.43,2.35 4.574,4.002c1.143,1.651 1.207,3.366 0.19,5.145c-4.827,8.385 -10.353,17.722 -16.578,28.012c-6.225,10.291 -12.832,20.39 -19.819,30.299c-6.987,9.91 -14.165,18.866 -21.533,26.869c-7.368,8.004 -14.61,13.657 -21.724,16.96c-3.811,1.779 -7.813,2.351 -12.005,1.715c-4.193,-0.635 -8.004,-2.032 -11.434,-4.192c-3.43,-2.16 -6.352,-4.828 -8.766,-8.004c-2.413,-3.176 -3.747,-6.288 -4.001,-9.337c-0.509,-4.065 -0,-9.655 1.524,-16.769c1.525,-7.115 3.176,-13.594 4.955,-19.437c-3.049,3.557 -6.289,7.685 -9.719,12.386c-3.43,4.7 -7.178,9.719 -11.243,15.054c-4.065,5.336 -8.321,10.672 -12.768,16.007c-4.446,5.336 -9.083,10.291 -13.91,14.864c-2.287,2.287 -5.781,3.176 -10.481,2.668c-4.701,-0.508 -9.338,-1.842 -13.911,-4.002c-4.574,-2.16 -8.575,-4.955 -12.005,-8.385c-3.431,-3.43 -4.891,-7.05 -4.383,-10.862c0.762,-9.655 3.049,-19.945 6.86,-30.87c3.811,-10.926 8.448,-21.534 13.911,-31.824c5.462,-10.29 11.56,-19.882 18.294,-28.774c6.733,-8.893 13.402,-16.135 20.008,-21.724c4.828,-3.812 9.274,-5.971 13.34,-6.479c4.065,-0.509 8.003,-0.064 11.814,1.334c3.812,1.397 7.623,3.43 11.434,6.097c3.811,2.668 7.876,5.273 12.196,7.813c2.795,-3.049 5.526,-6.288 8.194,-9.718c2.668,-3.43 5.526,-6.797 8.575,-10.1c1.779,-2.287 4.637,-3.176 8.575,-2.668c3.939,0.508 7.686,1.906 11.243,4.193c3.558,2.286 6.416,5.018 8.576,8.194c2.159,3.176 2.35,6.161 0.571,8.956c-8.638,14.737 -15.562,27.822 -20.771,39.255c-5.208,11.434 -9.02,21.089 -11.433,28.966c-2.414,7.876 -3.558,13.847 -3.43,17.912c0.127,4.066 1.079,6.098 2.858,6.098c5.082,-0.254 12.831,-7.114 23.248,-20.58c10.418,-13.467 23.249,-33.285 38.493,-59.455Zm-92.612,14.864c0.762,-1.017 1.144,-2.795 1.144,-5.336c-0,-2.541 -0.445,-4.891 -1.334,-7.051c-0.89,-2.159 -2.224,-3.493 -4.002,-4.002c-1.779,-0.508 -4.065,0.763 -6.86,3.812c-5.844,5.589 -11.243,12.195 -16.198,19.818c-4.955,7.622 -9.274,15.118 -12.958,22.486c-3.684,7.368 -6.67,14.165 -8.956,20.39c-2.287,6.225 -3.43,10.862 -3.43,13.911c2.794,-2.287 6.542,-6.035 11.243,-11.243c4.7,-5.209 9.591,-10.989 14.673,-17.341c5.081,-6.352 10.036,-12.704 14.863,-19.056c4.828,-6.352 8.766,-11.815 11.815,-16.388Z" style="fill-rule:nonzero;"/><path d="M1422.01,316.167c3.303,-1.779 7.241,-1.97 11.815,-0.572c4.573,1.397 8.702,3.557 12.386,6.479c3.684,2.922 6.289,6.098 7.813,9.528c1.525,3.43 1.017,6.161 -1.524,8.194c-10.163,7.877 -20.263,19.628 -30.299,35.254c-10.037,15.626 -19.247,32.84 -27.632,51.642c-8.384,18.802 -15.562,38.112 -21.533,57.93c-5.971,19.818 -9.909,37.985 -11.815,54.5c-1.905,16.515 -1.397,30.172 1.525,40.971c2.922,10.798 8.956,16.578 18.103,17.341c-2.033,2.286 -5.082,3.747 -9.147,4.383c-4.065,0.635 -8.448,0.127 -13.148,-1.525c-4.701,-1.652 -9.274,-4.637 -13.721,-8.956c-4.446,-4.32 -8.067,-10.164 -10.862,-17.532c-2.795,-7.368 -4.446,-16.325 -4.954,-26.869c-0.509,-10.544 0.889,-23.058 4.192,-37.54c-0,-1.017 -0.127,-1.588 -0.381,-1.715c-0.254,-0.127 -0.635,0.317 -1.143,1.334c-2.033,3.557 -4.32,7.368 -6.861,11.433c-2.54,4.066 -5.272,7.94 -8.194,11.624c-2.922,3.685 -5.717,6.924 -8.384,9.719c-2.668,2.795 -5.019,4.573 -7.051,5.336c-3.049,1.016 -6.67,1.397 -10.862,1.143c-4.192,-0.254 -8.258,-1.207 -12.196,-2.858c-3.938,-1.652 -7.305,-4.002 -10.1,-7.051c-2.795,-3.049 -4.319,-6.86 -4.573,-11.434c-0.254,-6.098 0.445,-13.339 2.096,-21.724c1.652,-8.384 4.065,-17.15 7.241,-26.297c3.176,-9.147 7.051,-18.294 11.625,-27.441c4.573,-9.146 9.591,-17.341 15.054,-24.582c5.463,-7.241 11.306,-13.212 17.531,-17.913c6.225,-4.7 12.641,-7.304 19.247,-7.813c5.082,-0.254 9.846,0.636 14.292,2.668c4.446,2.033 8.702,4.066 12.768,6.098c1.016,-2.795 2.794,-6.796 5.335,-12.005c2.541,-5.209 5.463,-10.989 8.766,-17.341c3.303,-6.352 6.924,-12.958 10.862,-19.818c3.938,-6.86 7.876,-13.34 11.815,-19.437c3.938,-6.098 7.813,-11.371 11.624,-15.817c3.811,-4.446 7.241,-7.559 10.29,-9.337Zm-72.794,121.577c1.016,-3.303 1.08,-6.034 0.191,-8.194c-0.89,-2.16 -3.24,-2.604 -7.051,-1.334c-3.557,1.27 -7.305,4.192 -11.243,8.766c-3.938,4.573 -7.813,9.972 -11.624,16.197c-3.812,6.225 -7.305,12.768 -10.481,19.628c-3.176,6.86 -5.717,13.276 -7.623,19.247c-1.905,5.971 -3.049,11.116 -3.43,15.435c-0.381,4.32 0.445,6.86 2.478,7.623c1.016,0.508 2.922,-0.763 5.716,-3.812c2.795,-3.049 5.908,-7.114 9.338,-12.196c3.43,-5.081 7.051,-10.734 10.862,-16.959c3.811,-6.225 7.305,-12.323 10.481,-18.294c3.176,-5.971 5.907,-11.307 8.194,-16.007c2.286,-4.701 3.684,-8.067 4.192,-10.1Z" style="fill-rule:nonzero;"/></g><path d="M232.926,206.526c-2.015,1.774 -4.273,2.802 -6.773,3.085c-2.5,0.282 -4.839,-0.162 -7.016,-1.331c-2.177,-1.169 -3.971,-3.064 -5.383,-5.685c-1.411,-2.621 -2.076,-5.907 -1.995,-9.858c0.161,-4.113 0.846,-8.629 2.056,-13.548c1.21,-4.919 2.621,-9.898 4.233,-14.938c1.613,-5.04 3.226,-10.02 4.839,-14.939c1.613,-4.919 2.903,-9.475 3.871,-13.668c1.209,-4.919 1.572,-8.366 1.088,-10.342c-0.484,-1.976 -1.532,-2.722 -3.145,-2.238c-1.613,0.484 -3.608,2.016 -5.987,4.597c-2.379,2.58 -4.818,5.967 -7.318,10.16c-4.113,6.774 -8.488,15.14 -13.124,25.099c-4.637,9.959 -9.254,22.075 -13.85,36.349c-0.323,0.967 -1.311,1.431 -2.964,1.391c-1.653,-0.041 -3.326,-0.444 -5.02,-1.21c-1.693,-0.766 -3.064,-1.835 -4.112,-3.205c-1.048,-1.371 -1.129,-2.944 -0.242,-4.718c0.484,-1.048 1.31,-2.943 2.48,-5.685c1.169,-2.742 2.499,-6.008 3.991,-9.798c1.492,-3.79 3.044,-7.943 4.657,-12.458c1.613,-4.516 3.125,-9.052 4.536,-13.608c1.411,-4.557 2.621,-8.972 3.629,-13.245c1.008,-4.274 1.673,-8.044 1.996,-11.31c0.322,-3.266 0.181,-5.867 -0.424,-7.802c-0.604,-1.935 -1.834,-2.903 -3.689,-2.903c-1.935,0.081 -4.032,1.048 -6.29,2.903c-2.258,1.855 -4.475,4.294 -6.652,7.318c-2.178,3.024 -4.234,6.431 -6.169,10.221c-1.936,3.79 -3.569,7.641 -4.899,11.552c-1.331,3.911 -2.258,7.701 -2.782,11.37c-0.524,3.669 -0.464,6.834 0.181,9.495c0.242,1.049 0.706,1.915 1.391,2.601c0.686,0.685 1.472,1.189 2.359,1.512c0.887,0.322 1.855,0.403 2.903,0.242c1.048,-0.162 2.097,-0.565 3.145,-1.21c-0.323,1.21 -1.19,2.238 -2.601,3.085c-1.411,0.846 -3.024,1.37 -4.838,1.572c-1.815,0.202 -3.669,0.081 -5.564,-0.363c-1.895,-0.443 -3.569,-1.371 -5.02,-2.782c-1.452,-1.411 -2.52,-3.326 -3.206,-5.745c-0.685,-2.42 -0.665,-5.484 0.061,-9.193c0.726,-3.548 1.754,-7.238 3.084,-11.068c1.331,-3.831 2.924,-7.56 4.778,-11.189c1.855,-3.629 3.952,-7.056 6.29,-10.281c2.339,-3.226 4.839,-6.069 7.5,-8.528c2.661,-2.46 5.463,-4.395 8.406,-5.806c2.944,-1.411 5.988,-2.117 9.133,-2.117c3.467,0 6.108,0.867 7.923,2.601c1.814,1.733 3.064,3.911 3.749,6.532c0.686,2.62 0.887,5.544 0.605,8.769c-0.282,3.226 -0.726,6.33 -1.33,9.314c-0.605,2.984 -1.291,5.685 -2.057,8.104c-0.766,2.419 -1.35,4.153 -1.754,5.201c0.807,-1.693 1.916,-3.991 3.327,-6.894c1.411,-2.903 3.044,-5.968 4.899,-9.193c1.854,-3.226 3.931,-6.391 6.229,-9.495c2.298,-3.105 4.738,-5.766 7.318,-7.984c2.581,-2.217 5.262,-3.729 8.044,-4.536c2.782,-0.806 5.624,-0.564 8.527,0.726c1.452,0.645 2.641,1.814 3.569,3.508c0.927,1.693 1.492,3.951 1.693,6.774c0.202,2.822 -0.04,6.289 -0.726,10.402c-0.685,4.113 -1.874,8.911 -3.568,14.394c-1.451,4.677 -2.943,9.455 -4.475,14.334c-1.532,4.879 -2.883,9.616 -4.052,14.213c-1.17,4.596 -2.097,8.89 -2.783,12.882c-0.685,3.992 -0.927,7.439 -0.725,10.342c0.201,2.903 0.927,5.1 2.177,6.592c1.25,1.492 3.205,2.036 5.866,1.633Z" style="fill:#e7e7e7;fill-rule:nonzero;"/></g></svg>